<svg width="22" height="22" viewBox="0 0 22 22" fill="none" xmlns="http://www.w3.org/2000/svg">
<mask id="path-1-inside-1_29827_25" fill="white">
<path d="M16.79 21.75H5.21C2.47 21.75 0.25 19.52 0.25 16.78V9.37C0.25 8.01 1.09 6.3 2.17 5.46L7.56 1.26C9.18 4.58956e-06 11.77 -0.0599955 13.45 1.12L19.63 5.45C20.82 6.28 21.75 8.06001 21.75 9.51V16.79C21.75 19.52 19.53 21.75 16.79 21.75ZM8.48 2.44L3.09 6.64C2.38 7.2 1.75 8.47001 1.75 9.37V16.78C1.75 18.69 3.3 20.25 5.21 20.25H16.79C18.7 20.25 20.25 18.7 20.25 16.79V9.51C20.25 8.55 19.56 7.22 18.77 6.68L12.59 2.35C11.45 1.55 9.57 1.59 8.48 2.44Z"/>
</mask>
<path d="M16.79 21.75H5.21C2.47 21.75 0.25 19.52 0.25 16.78V9.37C0.25 8.01 1.09 6.3 2.17 5.46L7.56 1.26C9.18 4.58956e-06 11.77 -0.0599955 13.45 1.12L19.63 5.45C20.82 6.28 21.75 8.06001 21.75 9.51V16.79C21.75 19.52 19.53 21.75 16.79 21.75ZM8.48 2.44L3.09 6.64C2.38 7.2 1.75 8.47001 1.75 9.37V16.78C1.75 18.69 3.3 20.25 5.21 20.25H16.79C18.7 20.25 20.25 18.7 20.25 16.79V9.51C20.25 8.55 19.56 7.22 18.77 6.68L12.59 2.35C11.45 1.55 9.57 1.59 8.48 2.44Z" fill="#48B2E7"/>
<path d="M2.17 5.46L3.39788 7.03871L3.3993 7.03761L2.17 5.46ZM7.56 1.26L6.33212 -0.3187L6.3307 -0.317596L7.56 1.26ZM13.45 1.12L12.3005 2.75664L12.3024 2.75797L13.45 1.12ZM19.63 5.45L18.4824 7.08797L18.4859 7.09041L19.63 5.45ZM8.48 2.44L9.7093 4.01761L9.70988 4.01715L8.48 2.44ZM3.09 6.64L1.86068 5.06238L1.85143 5.06967L3.09 6.64ZM18.77 6.68L17.6224 8.31797L17.6318 8.32461L17.6414 8.33113L18.77 6.68ZM12.59 2.35L11.4411 3.98712L11.4424 3.98797L12.59 2.35ZM16.79 19.75H5.21V23.75H16.79V19.75ZM5.21 19.75C3.57981 19.75 2.25 18.4207 2.25 16.78H-1.75C-1.75 20.6193 1.36019 23.75 5.21 23.75V19.75ZM2.25 16.78V9.37H-1.75V16.78H2.25ZM2.25 9.37C2.25 9.06814 2.35387 8.60322 2.6002 8.10163C2.84621 7.60069 3.15277 7.22935 3.39788 7.03871L0.942119 3.8813C0.107233 4.53066 -0.546212 5.43432 -0.990197 6.33838C-1.43387 7.24179 -1.75 8.31187 -1.75 9.37H2.25ZM3.3993 7.03761L8.7893 2.83761L6.3307 -0.317596L0.940701 3.8824L3.3993 7.03761ZM8.78788 2.83871C9.71216 2.11983 11.3375 2.08025 12.3005 2.75664L14.5995 -0.516627C12.2025 -2.20025 8.64784 -2.11982 6.33212 -0.3187L8.78788 2.83871ZM12.3024 2.75797L18.4824 7.08797L20.7776 3.81204L14.5976 -0.517961L12.3024 2.75797ZM18.4859 7.09041C18.7572 7.27969 19.0935 7.65637 19.3635 8.17336C19.6335 8.69047 19.75 9.1807 19.75 9.51H23.75C23.75 8.38931 23.4015 7.26454 22.909 6.32165C22.4165 5.37864 21.6928 4.45032 20.7741 3.8096L18.4859 7.09041ZM19.75 9.51V16.79H23.75V9.51H19.75ZM19.75 16.79C19.75 18.4181 18.4228 19.75 16.79 19.75V23.75C20.6372 23.75 23.75 20.6219 23.75 16.79H19.75ZM7.2507 0.862404L1.8607 5.0624L4.3193 8.21761L9.7093 4.01761L7.2507 0.862404ZM1.85143 5.06967C1.1898 5.59152 0.689462 6.32398 0.359546 6.99386C0.0308573 7.66125 -0.25 8.51283 -0.25 9.37H3.75C3.75 9.37247 3.74993 9.35592 3.75556 9.31903C3.7611 9.28275 3.77102 9.23416 3.78755 9.17425C3.82121 9.05219 3.87509 8.9091 3.94795 8.76115C4.11054 8.43103 4.2802 8.24849 4.32857 8.21034L1.85143 5.06967ZM-0.25 9.37V16.78H3.75V9.37H-0.25ZM-0.25 16.78C-0.25 19.7871 2.18793 22.25 5.21 22.25V18.25C4.41207 18.25 3.75 17.593 3.75 16.78H-0.25ZM5.21 22.25H16.79V18.25H5.21V22.25ZM16.79 22.25C19.8046 22.25 22.25 19.8046 22.25 16.79H18.25C18.25 17.5954 17.5954 18.25 16.79 18.25V22.25ZM22.25 16.79V9.51H18.25V16.79H22.25ZM22.25 9.51C22.25 8.60855 21.9457 7.71461 21.5795 7.01252C21.2142 6.31226 20.6523 5.54403 19.8986 5.02888L17.6414 8.33113C17.6396 8.3299 17.6538 8.33954 17.6815 8.36594C17.7088 8.39195 17.7439 8.42908 17.7844 8.47873C17.8669 8.57995 17.9542 8.71149 18.033 8.86249C18.1117 9.01338 18.1705 9.16204 18.2076 9.29101C18.2462 9.42532 18.25 9.49908 18.25 9.51H22.25ZM19.9176 5.04204L13.7376 0.712039L11.4424 3.98797L17.6224 8.31797L19.9176 5.04204ZM13.7389 0.712891C12.7515 0.0200266 11.5552 -0.246764 10.4729 -0.223275C9.39155 -0.199807 8.2048 0.118382 7.25012 0.86286L9.70988 4.01715C9.8452 3.91163 10.1434 3.78482 10.5596 3.77578C10.9748 3.76677 11.2885 3.87998 11.4411 3.98712L13.7389 0.712891Z" fill="#48B2E7" mask="url(#path-1-inside-1_29827_25)"/>
</svg>
