<svg width="24" height="24" viewBox="0 0 24 24" fill="none" xmlns="http://www.w3.org/2000/svg">
<path d="M1.125 9.62671V20.8767C1.125 21.2745 1.28304 21.6561 1.56434 21.9374C1.84564 22.2187 2.22718 22.3767 2.625 22.3767H21.375C21.7728 22.3767 22.1544 22.2187 22.4357 21.9374C22.717 21.6561 22.875 21.2745 22.875 20.8767V9.62671" stroke="#FFF8F8" stroke-width="1.125" stroke-linecap="round" stroke-linejoin="round"/>
<path d="M5.4375 7.66507C3.92968 8.12553 2.482 8.76377 1.125 9.56632V9.56632L11.1487 16.4776C11.3991 16.6501 11.696 16.7425 12 16.7425C12.304 16.7425 12.6009 16.6501 12.8513 16.4776L22.875 9.56632C21.518 8.76377 20.0703 8.12553 18.5625 7.66507" stroke="#FFF8F8" stroke-width="1.125" stroke-linecap="round" stroke-linejoin="round"/>
<path d="M5.4375 12.5396V2.73709C5.4375 2.43872 5.55603 2.15257 5.767 1.9416C5.97798 1.73062 6.26413 1.61209 6.5625 1.61209H17.4375C17.7359 1.61209 18.022 1.73062 18.233 1.9416C18.444 2.15257 18.5625 2.43872 18.5625 2.73709V12.5358L12.8513 16.4771C12.6009 16.6496 12.304 16.742 12 16.742C11.696 16.742 11.3991 16.6496 11.1487 16.4771L5.44125 12.5396" stroke="#FFF8F8" stroke-width="1.125" stroke-linecap="round" stroke-linejoin="round"/>
<path d="M15.5625 4.94632H8.4375" stroke="#FFF8F8" stroke-width="1.125" stroke-linecap="round" stroke-linejoin="round"/>
<path d="M12 10.7252H8.4375" stroke="#FFF8F8" stroke-width="1.125" stroke-linecap="round" stroke-linejoin="round"/>
<path d="M15.5625 7.83731H8.4375" stroke="#FFF8F8" stroke-width="1.125" stroke-linecap="round" stroke-linejoin="round"/>
<path d="M9.44227 15.3077L1.60852 21.9827" stroke="#FFF8F8" stroke-width="1.125" stroke-linecap="round" stroke-linejoin="round"/>
<path d="M14.5389 15.3077L22.3951 21.9827" stroke="#FFF8F8" stroke-width="1.125" stroke-linecap="round" stroke-linejoin="round"/>
</svg>
