<svg width="23" height="16" viewBox="0 0 23 16" fill="none" xmlns="http://www.w3.org/2000/svg">
<path d="M11.5 5C12.2957 5 13.0587 5.31607 13.6213 5.87868C14.1839 6.44129 14.5 7.20435 14.5 8C14.5 8.79565 14.1839 9.55871 13.6213 10.1213C13.0587 10.6839 12.2957 11 11.5 11C10.7044 11 9.94129 10.6839 9.37868 10.1213C8.81607 9.55871 8.5 8.79565 8.5 8C8.5 7.20435 8.81607 6.44129 9.37868 5.87868C9.94129 5.31607 10.7044 5 11.5 5ZM11.5 0.5C16.5 0.5 20.77 3.61 22.5 8C20.77 12.39 16.5 15.5 11.5 15.5C6.5 15.5 2.23 12.39 0.5 8C2.23 3.61 6.5 0.5 11.5 0.5ZM2.68 8C3.48825 9.65031 4.74331 11.0407 6.30248 12.0133C7.86165 12.9858 9.6624 13.5013 11.5 13.5013C13.3376 13.5013 15.1383 12.9858 16.6975 12.0133C18.2567 11.0407 19.5117 9.65031 20.32 8C19.5117 6.34969 18.2567 4.95925 16.6975 3.98675C15.1383 3.01424 13.3376 2.49868 11.5 2.49868C9.6624 2.49868 7.86165 3.01424 6.30248 3.98675C4.74331 4.95925 3.48825 6.34969 2.68 8Z" fill="#2B2B2B"/>
</svg>
